<svg width="88" height="84" viewBox="0 0 88 84" fill="none" xmlns="http://www.w3.org/2000/svg">
<path fill-rule="evenodd" clip-rule="evenodd" d="M67.0476 46.2V75.6H8.38095V16.8H29.4171C29.6267 13.818 30.339 11.004 31.4286 8.4H8.38095C3.77143 8.4 0 12.18 0 16.8V75.6C0 80.22 3.77143 84 8.38095 84H67.0476C71.6572 84 75.4286 80.22 75.4286 75.6V54.6L67.0476 46.2ZM60.7619 67.2H14.6667L26.1905 52.374L34.4038 62.286L45.9276 47.418L60.7619 67.2ZM72.4952 28.938C74.3391 25.998 75.4286 22.596 75.4286 18.9C75.4286 8.442 67.0057 0 56.5714 0C46.1371 0 37.7143 8.442 37.7143 18.9C37.7143 29.358 46.1371 37.8 56.5295 37.8C60.2171 37.8 63.6533 36.708 66.5448 34.86L79.619 47.964L85.5695 42L72.4952 28.938ZM56.5714 29.4C50.7886 29.4 46.0952 24.696 46.0952 18.9C46.0952 13.104 50.7886 8.4 56.5714 8.4C62.3543 8.4 67.0476 13.104 67.0476 18.9C67.0476 24.696 62.3543 29.4 56.5714 29.4Z" fill="#3E3D42"/>
</svg>
